<svg xmlns="http://www.w3.org/2000/svg" viewBox="0 0 64 64" fill="none" stroke-linecap="round" stroke-linejoin="round">
  <!-- Sasha's Corner Rewards sticker, slot 8: a gold star (the gold stars in the interior). Our own drawing.
       CANONICAL: assets/pass/stickers/ in the repo. site/web/public/stickers/ and
       web/public/stickers/ are copies written by `cafeops wallet assets`; edit here.
       Layers: shadow, white die-cut, then the art in the logo's olive line. -->
  <g transform="rotate(10 32 32)">
    <g transform="translate(0.8 1.8)" fill="#474531" stroke="#474531" opacity="0.16">
      <path d="M32 8.5L38.8 24.2L55.8 25.8L42.9 37.1L46.7 53.7L32 45L17.3 53.7L21.1 37.1L8.2 25.8L25.2 24.2Z" stroke-width="8"/>
    </g>
    <g fill="#ffffff" stroke="#ffffff">
      <path d="M32 8.5L38.8 24.2L55.8 25.8L42.9 37.1L46.7 53.7L32 45L17.3 53.7L21.1 37.1L8.2 25.8L25.2 24.2Z" stroke-width="8"/>
    </g>
    <path d="M32 8.5L38.8 24.2L55.8 25.8L42.9 37.1L46.7 53.7L32 45L17.3 53.7L21.1 37.1L8.2 25.8L25.2 24.2Z" fill="#d4884e" stroke="#d4884e" stroke-width="4"/>
    <path d="M32 8.5L38.8 24.2L55.8 25.8L42.9 37.1L46.7 53.7L32 45L17.3 53.7L21.1 37.1L8.2 25.8L25.2 24.2Z" stroke="#474531" stroke-width="1.8"/>
    <path d="M22 30.5L26.8 30.2M30.2 20.5L32 16" stroke="#f3f1eb" stroke-width="2"/>
  </g>
</svg>
